<?xml version="1.0" standalone="no"?>
<!DOCTYPE svg PUBLIC "-//W3C//DTD SVG 20010904//EN"
 "http://www.w3.org/TR/2001/REC-SVG-20010904/DTD/svg10.dtd">
<svg version="1.0" xmlns="http://www.w3.org/2000/svg"
 width="4000.000000pt" height="4000.000000pt" viewBox="0 0 4000.000000 4000.000000"
 preserveAspectRatio="xMidYMid meet">
<metadata>
Created by potrace 1.11, written by Peter Selinger 2001-2013
</metadata>
<g transform="translate(0.000000,4000.000000) scale(0.100000,-0.100000)"
fill="#000000" stroke="none">
<path d="M17158 36310 c-128 -12 -352 -48 -438 -69 l-75 -19 90 -1 c513 -6
860 -113 950 -292 14 -26 25 -53 25 -58 0 -5 -34 6 -74 25 -126 58 -229 78
-396 78 -161 0 -254 -15 -400 -66 -189 -66 -406 -191 -566 -327 l-72 -60 -188
6 c-376 12 -691 -41 -922 -153 -40 -20 -71 -38 -69 -40 2 -3 40 6 83 20 173
53 284 76 464 95 141 15 446 25 514 17 l58 -8 -40 -41 c-22 -23 -65 -76 -95
-118 -70 -95 -133 -151 -214 -190 -131 -63 -306 -78 -392 -34 -93 47 -185 66
-341 72 -206 8 -397 -23 -645 -104 -156 -51 -433 -168 -423 -179 3 -3 51 9
107 25 175 52 267 65 476 65 200 0 294 -11 460 -57 l80 -22 -55 -6 c-30 -4
-98 -12 -150 -18 -87 -10 -164 -24 -475 -82 -140 -26 -369 -102 -506 -166 -59
-28 -128 -53 -155 -57 -92 -13 -299 -57 -389 -82 -344 -97 -591 -219 -777
-384 -68 -59 -59 -69 15 -17 144 103 357 204 582 279 110 36 414 118 439 118
6 0 -25 -23 -68 -51 -67 -43 -128 -86 -216 -156 -281 -219 -583 -550 -794
-868 -156 -234 -154 -245 8 -67 398 437 796 676 1097 659 48 -2 92 -8 98 -11
7 -5 -50 -50 -141 -113 -390 -269 -554 -417 -707 -636 -33 -48 -61 -92 -61
-97 0 -18 -177 -195 -290 -290 -63 -53 -218 -179 -345 -280 -350 -280 -457
-372 -611 -525 -196 -195 -218 -228 -365 -560 -9 -22 -56 -132 -104 -245 -183
-433 -250 -582 -356 -795 -123 -249 -202 -382 -306 -512 -86 -108 -142 -160
-333 -312 -80 -63 -180 -146 -223 -184 -195 -174 -351 -418 -450 -703 -60
-173 -96 -376 -117 -659 -30 -425 -42 -573 -49 -604 -6 -31 -12 -36 -61 -53
-400 -136 -679 -510 -705 -946 l-5 -87 34 133 c91 345 237 568 482 733 85 57
233 133 242 125 8 -9 -42 -315 -80 -486 l-32 -145 -49 -24 c-144 -69 -319
-226 -370 -332 -24 -48 -51 -149 -42 -157 2 -2 20 29 42 70 47 90 151 197 281
288 114 80 116 81 107 40 -14 -64 -114 -377 -165 -520 -159 -439 -220 -830
-220 -1415 0 -344 17 -609 66 -1005 95 -775 299 -1676 550 -2430 67 -200 74
-220 186 -520 198 -526 430 -1263 578 -1835 45 -172 61 -208 57 -129 -9 169
86 391 271 638 178 236 351 373 496 392 l49 7 -7 171 c-56 1335 9 2350 208
3296 92 435 114 527 156 642 197 540 742 870 1478 895 108 4 172 10 172 16 0
19 163 380 252 557 154 308 333 585 566 877 68 85 134 158 145 163 12 5 69 21
126 35 765 192 1465 689 2038 1450 112 148 324 472 345 525 5 12 154 107 243
156 23 12 350 199 438 250 32 19 60 34 63 34 2 0 50 26 106 57 232 128 920
477 1203 610 236 110 409 191 480 223 28 12 73 33 100 45 380 176 677 283
1024 370 261 66 450 99 711 125 58 6 125 13 150 15 87 9 536 13 615 5 44 -4
123 -11 175 -14 93 -6 145 -11 205 -21 17 -2 53 -7 80 -10 241 -29 565 -105
920 -214 116 -36 221 -80 195 -81 -14 -1 -32 -3 -40 -4 -8 -2 -46 -7 -85 -11
-193 -20 -658 -109 -895 -171 -241 -64 -534 -161 -680 -225 -106 -48 -320
-153 -316 -156 2 -2 66 20 142 50 179 70 617 214 706 231 13 2 77 19 143 36
66 18 136 36 155 40 19 4 78 18 130 30 52 12 113 26 135 30 22 4 108 21 190
38 131 27 288 58 335 67 139 25 155 26 198 11 57 -20 247 -105 295 -132 l38
-21 -53 -39 c-246 -184 -632 -418 -923 -561 -60 -29 -123 -60 -140 -69 -54
-29 -308 -135 -440 -184 -121 -45 -432 -146 -472 -155 -10 -2 -56 -13 -103
-26 -47 -12 -168 -39 -270 -60 -183 -38 -171 -42 40 -15 289 38 791 175 1025
281 28 12 61 26 75 30 48 15 325 147 440 210 125 69 344 200 430 259 66 44
343 250 405 300 23 18 23 18 101 -26 75 -42 80 -46 96 -96 85 -263 658 -889
1658 -1809 364 -334 540 -542 775 -910 181 -284 412 -765 565 -1173 200 -536
380 -1181 509 -1830 12 -58 23 -116 26 -130 3 -14 21 -110 41 -215 19 -104 40
-219 47 -254 l12 -64 80 -27 c239 -80 521 -224 703 -359 530 -393 639 -905
352 -1661 -131 -346 -457 -963 -711 -1347 l-47 -72 -6 -173 c-3 -95 -8 -209
-11 -253 -3 -44 -7 -136 -10 -205 -4 -69 -8 -150 -10 -180 -2 -30 -7 -100 -10
-155 -4 -55 -8 -116 -10 -135 -2 -19 -6 -75 -10 -125 -3 -49 -8 -108 -10 -130
-2 -22 -7 -74 -10 -115 -3 -41 -8 -96 -10 -122 -9 -86 -14 -142 -20 -208 -3
-36 -7 -81 -10 -100 -2 -19 -7 -64 -10 -100 -14 -151 -23 -239 -30 -300 -7
-54 -34 -309 -40 -370 -5 -53 -12 -122 -20 -185 -2 -16 -6 -57 -10 -90 -4 -33
-8 -71 -10 -85 -2 -14 -7 -52 -10 -85 -4 -33 -9 -73 -11 -90 -4 -33 -41 -337
-49 -400 -10 -88 -17 -141 -20 -165 -3 -14 -11 -81 -20 -150 -9 -69 -18 -136
-20 -150 -27 -188 -27 -190 -10 -190 30 0 92 39 119 74 79 105 141 340 161
616 11 162 15 207 20 240 2 19 7 68 11 109 3 41 7 82 9 90 2 15 9 66 21 166
14 119 14 118 29 225 10 73 25 180 29 220 3 25 13 92 21 150 16 108 31 219 40
280 2 19 12 87 20 150 9 63 18 131 21 150 2 19 6 49 9 65 7 43 21 153 50 380
6 45 16 112 20 135 2 8 6 44 10 80 3 36 8 72 10 80 2 8 7 40 10 70 3 30 8 66
10 80 5 30 22 166 30 235 45 369 170 832 314 1157 203 461 384 740 947 1468
255 330 338 451 571 830 617 1007 853 1597 853 2135 0 146 -16 247 -68 441
-54 196 -66 281 -59 406 4 88 12 125 55 253 106 318 136 530 136 965 0 391
-30 647 -115 970 -91 345 -261 733 -423 965 l-21 30 49 -35 c112 -80 176 -150
220 -239 117 -232 283 -639 376 -921 90 -271 168 -598 186 -783 11 -113 26
-90 19 29 -28 461 -172 960 -432 1489 -48 99 -51 107 -23 75 50 -56 182 -255
258 -389 140 -244 304 -602 412 -904 29 -81 55 -146 57 -144 9 10 -60 332
-118 547 -264 974 -762 1744 -1548 2399 -64 53 -132 107 -151 121 -19 13 -37
27 -40 30 -10 13 -236 178 -360 262 -172 118 -376 248 -770 490 -184 114 -445
279 -579 368 -341 224 -564 334 -861 423 -234 71 -519 121 -751 133 -68 4
-130 10 -138 14 -31 16 392 258 588 335 100 40 305 95 351 95 16 0 32 5 36 12
11 17 -194 2 -294 -22 -229 -55 -461 -172 -697 -350 l-90 -68 -165 -6 c-91 -4
-187 -10 -214 -13 -57 -7 -57 -20 6 152 81 221 200 443 301 563 47 56 47 72 0
37 -184 -136 -323 -397 -362 -679 -5 -37 -12 -70 -14 -73 -3 -2 -58 -11 -123
-19 -104 -14 -419 -72 -481 -90 -18 -5 -27 2 -53 42 -68 107 -95 258 -88 489
5 153 7 168 32 220 34 67 128 165 216 223 112 73 282 130 455 151 126 15 359
13 490 -4 153 -21 157 -20 120 11 -48 40 -165 117 -230 151 -141 73 -323 119
-511 130 l-102 6 64 81 c105 132 175 285 216 471 8 37 13 125 12 230 0 150 -3
184 -28 289 -30 129 -77 261 -126 352 -36 69 -34 52 15 -111 113 -379 110
-698 -9 -991 -42 -104 -119 -234 -171 -289 -38 -41 -43 -42 -115 -48 -41 -4
-119 -17 -172 -30 -54 -14 -98 -22 -98 -20 0 22 46 82 114 148 45 44 93 93
106 110 141 174 211 346 209 511 -1 83 -5 79 -29 -26 -18 -82 -66 -195 -117
-280 -42 -69 -174 -243 -180 -236 -1 1 11 38 28 82 122 315 169 535 176 819 6
199 -1 272 -39 425 -141 573 -670 998 -1524 1225 -370 99 -765 155 -1232 175
l-241 11 -107 40 c-198 75 -432 125 -694 149 -134 12 -617 12 -739 1 -79 -8
-88 -7 -145 19 -127 57 -352 127 -526 164 -239 50 -606 70 -857 47 -254 -24
-542 -84 -739 -156 -54 -20 -106 -39 -115 -42 -9 -2 -39 9 -66 26 -125 77
-289 134 -468 161 -92 14 -447 21 -557 10z m-832 -8085 c-243 -362 -434 -591
-721 -864 -140 -133 -241 -218 -380 -322 -103 -77 -299 -209 -309 -209 -4 0
-34 -17 -69 -38 -56 -34 -290 -152 -302 -152 -2 0 -33 -13 -67 -29 -103 -46
-318 -120 -407 -140 l-43 -9 24 26 c580 645 1353 1265 2321 1863 23 14 44 24
46 22 3 -2 -39 -68 -93 -148z"/>
<path d="M12450 24171 c-46 -15 -85 -39 -116 -73 -54 -57 -69 -95 -69 -178 0
-83 15 -121 69 -178 53 -57 101 -77 186 -77 85 0 133 20 186 77 54 57 69 95
69 178 0 54 -6 85 -19 110 -26 49 -74 98 -121 122 -43 22 -144 33 -185 19z
m168 -50 c80 -41 122 -111 122 -201 0 -130 -90 -220 -220 -220 -130 0 -220 90
-220 220 0 90 43 160 125 203 43 23 146 22 193 -2z"/>
<path d="M12473 24015 c-34 -14 -63 -59 -63 -97 0 -38 35 -85 74 -98 69 -22
146 29 146 98 0 39 -29 83 -65 98 -42 17 -51 17 -92 -1z"/>
<path d="M24027 24164 c-1 -1 -72 -5 -157 -8 -85 -4 -177 -9 -205 -11 -27 -2
-77 -7 -110 -9 -33 -3 -96 -8 -140 -12 -44 -3 -87 -7 -95 -9 -8 -1 -70 -8
-138 -15 -67 -7 -121 -15 -119 -17 2 -2 155 -21 339 -43 932 -110 1700 -231
2463 -386 254 -51 536 -114 547 -120 5 -3 8 -1 8 5 0 21 -182 200 -252 248
-133 92 -302 166 -513 227 -175 50 -483 105 -680 121 -38 3 -83 8 -100 11 -16
3 -165 7 -330 10 -165 2 -349 5 -408 7 -60 1 -109 2 -110 1z"/>
<path d="M17587 24083 c-3 -5 -3 -19 0 -31 5 -20 12 -22 97 -23 175 -1 717
-17 846 -24 52 -2 194 -7 315 -10 121 -3 238 -8 260 -10 22 -2 130 -6 240 -10
110 -3 223 -7 250 -10 28 -2 127 -7 220 -10 178 -7 264 -11 430 -20 55 -3 141
-8 190 -10 83 -4 173 -9 350 -20 39 -3 113 -7 165 -10 170 -10 364 -22 460
-30 30 -2 100 -7 155 -10 55 -4 116 -8 135 -10 19 -2 73 -6 120 -10 98 -7 198
-15 255 -20 22 -1 76 -6 120 -9 44 -4 98 -9 120 -11 22 -2 76 -7 120 -10 44
-4 94 -8 110 -10 17 -2 62 -6 100 -10 39 -3 88 -8 110 -10 22 -2 74 -7 115
-10 41 -3 89 -8 105 -10 17 -3 57 -7 90 -10 33 -3 74 -7 90 -10 17 -2 77 -9
135 -15 144 -14 201 -21 230 -25 14 -2 52 -6 85 -10 64 -6 364 -43 405 -50 14
-2 52 -7 85 -11 33 -5 62 -9 65 -9 3 -1 37 -5 75 -10 39 -5 72 -10 75 -10 3
-1 28 -5 55 -9 172 -25 323 -48 345 -52 14 -2 54 -9 90 -15 540 -90 863 -157
1305 -269 498 -126 617 -158 850 -225 1440 -416 1777 -831 1472 -1810 -66
-214 -177 -463 -419 -944 -153 -304 -157 -315 -138 -328 11 -8 24 -12 29 -9 9
6 335 656 386 771 217 484 298 777 298 1075 0 171 -12 240 -63 367 -103 257
-377 494 -760 657 -36 15 -74 31 -85 36 -148 67 -548 199 -860 284 -155 42
-671 176 -839 217 -405 101 -1005 214 -1566 295 -19 2 -78 11 -130 19 -106 15
-142 20 -268 35 -48 6 -98 13 -112 15 -14 2 -47 7 -75 10 -93 11 -130 16 -155
20 -14 2 -56 6 -93 10 -37 3 -76 8 -85 10 -9 1 -46 6 -82 9 -36 4 -81 9 -100
11 -34 4 -94 10 -187 20 -27 3 -70 7 -98 10 -27 3 -66 7 -85 10 -19 2 -71 7
-115 10 -78 6 -128 11 -210 20 -22 2 -71 7 -110 10 -38 3 -95 7 -125 10 -100
9 -154 14 -225 20 -38 3 -92 7 -120 10 -27 2 -88 7 -135 10 -47 3 -96 7 -110
10 -14 2 -74 7 -135 10 -60 3 -132 8 -160 10 -27 2 -93 7 -145 10 -52 4 -120
8 -151 10 -65 5 -200 14 -319 20 -47 3 -110 7 -140 10 -30 3 -111 7 -180 10
-69 3 -143 7 -165 10 -22 3 -110 7 -195 10 -85 3 -173 7 -195 10 -22 3 -112 7
-200 10 -244 8 -392 14 -475 20 -41 2 -165 7 -275 10 -110 3 -279 8 -375 12
-96 3 -211 7 -255 8 -343 10 -523 16 -666 21 -100 4 -169 2 -172 -3z"/>
<path d="M17583 23614 c-5 -137 -9 -250 -8 -252 1 -1 20 -5 41 -7 87 -11 214
-37 292 -61 122 -37 221 -87 362 -182 265 -180 481 -244 685 -202 135 28 272
123 318 223 27 56 41 137 33 182 -17 92 -338 350 -595 480 l-73 36 -226 9
c-125 5 -360 12 -523 16 l-296 7 -10 -249z"/>
<path d="M21972 23613 c-6 -16 -13 -37 -16 -48 -9 -33 -10 -167 -2 -205 11
-46 46 -130 56 -130 4 0 39 26 77 59 103 85 188 144 330 227 69 40 120 75 112
78 -13 4 -508 47 -535 46 -6 0 -16 -12 -22 -27z"/>
<path d="M22576 23511 c-157 -79 -325 -190 -444 -291 l-82 -71 22 -29 c71 -97
254 -100 608 -10 69 17 247 64 395 104 249 68 443 118 505 130 14 3 93 18 175
35 83 16 174 33 203 37 29 4 51 8 49 10 -9 10 -612 82 -1022 124 -110 11 -216
22 -237 25 -30 4 -58 -6 -172 -64z"/>
<path d="M25790 23128 c3 -3 82 -45 175 -93 399 -206 753 -437 1049 -687 146
-123 138 -119 115 -58 -31 81 -113 259 -201 437 l-80 162 -87 20 c-260 60
-796 183 -861 197 -41 9 -84 18 -95 21 -11 3 -18 3 -15 1z"/>
<path d="M27604 22578 c4 -35 13 -110 21 -168 15 -104 22 -152 30 -220 2 -19
6 -53 9 -75 3 -22 8 -65 11 -95 7 -72 17 -151 20 -170 2 -9 6 -46 9 -82 4 -37
8 -75 10 -85 2 -10 7 -49 10 -88 6 -66 9 -88 20 -175 3 -19 7 -69 11 -110 5
-67 8 -92 20 -180 2 -14 6 -54 10 -90 4 -36 8 -76 10 -90 2 -14 7 -52 10 -85
4 -33 8 -69 10 -80 1 -11 3 -32 4 -47 0 -16 5 -28 9 -28 9 0 54 89 170 335
148 316 251 581 308 790 l24 90 -48 99 c-26 55 -66 127 -89 160 -103 148 -301
310 -506 412 l-89 45 6 -63z"/>
<path d="M16185 22615 c-11 -2 -67 -9 -125 -15 -320 -36 -700 -177 -975 -362
-217 -146 -439 -354 -598 -559 -89 -115 -82 -109 90 79 215 233 484 434 768
572 226 111 424 172 678 212 187 28 529 31 717 5 414 -58 791 -176 1190 -373
213 -106 228 -110 72 -17 -364 215 -837 380 -1258 439 -99 13 -510 28 -559 19z"/>
<path d="M23725 22609 c-346 -20 -668 -138 -955 -349 -108 -80 -308 -280 -389
-390 -66 -90 -163 -247 -181 -296 -16 -40 -7 -29 47 62 102 169 290 384 448
514 234 191 509 322 801 381 139 27 416 37 577 19 387 -42 819 -178 1149 -361
319 -177 615 -438 790 -694 71 -104 87 -124 63 -75 -22 43 -103 165 -163 245
-69 91 -285 301 -396 384 -334 251 -704 413 -1161 510 -223 47 -420 63 -630
50z"/>
<path d="M13925 22567 c-279 -17 -302 -20 -323 -40 -40 -37 -190 -236 -269
-355 -70 -107 -209 -369 -201 -378 2 -2 70 45 151 105 265 196 631 447 893
611 147 92 176 85 -251 57z"/>
<path d="M16230 22227 c-3 -3 -36 -8 -75 -12 -452 -44 -919 -330 -1204 -737
l-45 -63 110 101 c60 56 138 126 174 155 l65 53 -46 -50 c-64 -68 -129 -151
-190 -240 l-51 -76 48 -50 c184 -188 472 -341 784 -418 180 -43 285 -55 505
-54 422 1 823 102 1288 322 128 61 417 220 417 229 0 3 -35 -15 -77 -38 -204
-113 -490 -239 -701 -309 -166 -55 -292 -91 -292 -84 0 3 20 24 44 47 53 51
97 116 137 201 76 163 79 393 6 558 -26 59 -89 157 -127 197 l-23 23 24 -7
c83 -25 328 -130 464 -199 160 -81 206 -108 378 -221 51 -33 106 -68 122 -78
l30 -18 -30 26 c-35 30 -316 218 -390 260 -27 16 -104 57 -170 92 -66 34 -117
63 -113 63 13 0 222 -103 308 -153 120 -69 124 -71 115 -58 -15 25 -196 156
-297 217 -298 177 -567 271 -883 309 -103 12 -297 20 -305 12z m-131 -165
c-59 -38 -149 -130 -194 -198 -20 -30 -50 -92 -67 -137 -26 -71 -31 -99 -35
-207 -4 -94 -1 -142 11 -194 34 -143 136 -299 253 -385 34 -25 62 -49 62 -52
1 -8 -127 8 -224 27 -291 58 -608 210 -793 380 l-73 66 17 27 c9 14 42 59 72
99 210 276 429 442 712 540 80 27 226 60 274 61 29 1 29 0 -15 -27z m261 -308
c37 -23 60 -64 60 -111 0 -146 -212 -174 -250 -32 -29 109 92 200 190 143z"/>
<path d="M24217 22184 c-1 -1 -36 -5 -77 -8 -496 -39 -1049 -325 -1487 -768
-67 -67 -132 -136 -145 -153 l-23 -30 31 25 c17 14 78 64 135 111 121 100 322
249 394 291 28 16 60 36 73 45 12 8 22 13 22 10 0 -2 -35 -28 -77 -58 -125
-86 -267 -203 -381 -314 -88 -86 -105 -106 -94 -117 11 -11 12 -10 7 2 -6 18
60 84 195 195 47 39 90 74 95 78 119 98 544 357 586 357 4 0 -8 -33 -27 -73
-43 -90 -64 -187 -64 -295 0 -237 111 -442 315 -578 81 -54 160 -85 275 -108
14 -3 -29 -3 -95 -1 -209 8 -486 65 -724 152 -124 44 -408 178 -486 228 l-40
26 30 -25 c31 -27 196 -119 310 -174 261 -126 561 -210 862 -242 148 -16 562
-8 696 14 245 40 487 105 697 187 135 52 393 177 473 228 l47 31 -99 122
c-201 249 -422 437 -656 560 -115 61 -103 62 18 2 232 -115 397 -237 641 -474
l139 -135 -58 80 c-340 467 -798 752 -1287 801 -51 5 -218 11 -221 8z m463
-211 c98 -29 143 -48 255 -105 81 -41 242 -141 260 -162 6 -6 28 -24 50 -40
38 -28 283 -271 315 -312 8 -10 33 -41 55 -68 l39 -48 -22 -19 c-72 -58 -424
-215 -628 -279 -283 -90 -613 -152 -799 -149 l-60 1 70 15 c204 43 383 182
478 370 86 169 91 411 12 588 -28 65 -100 170 -148 216 l-32 31 35 -7 c19 -4
73 -18 120 -32z m-713 -247 c95 -103 -24 -265 -147 -201 -47 24 -70 62 -70
114 0 119 137 174 217 87z m130 -943 c-20 -2 -52 -2 -70 0 -17 2 0 4 38 4 39
0 53 -2 32 -4z"/>
<path d="M12275 22038 c-95 -111 -156 -252 -208 -488 -14 -63 -35 -155 -46
-205 -52 -237 -165 -887 -225 -1300 -59 -405 -64 -458 -81 -855 -17 -384 -17
-385 4 -478 29 -128 72 -393 86 -532 3 -30 8 -73 10 -95 7 -61 14 -142 20
-230 3 -44 7 -107 10 -140 3 -33 8 -96 10 -140 19 -299 24 -369 40 -565 29
-353 104 -607 232 -787 63 -90 175 -171 159 -115 -3 9 -7 60 -10 112 -5 87 -9
157 -21 425 -2 50 -7 169 -10 265 -2 96 -7 236 -10 310 -3 74 -7 221 -10 325
-3 105 -7 273 -10 375 -3 102 -8 268 -10 370 -3 102 -8 302 -12 445 -20 769
-1 1885 42 2415 2 36 7 101 10 145 3 44 8 103 10 130 3 28 7 79 10 115 3 36 8
81 10 100 2 19 7 62 10 95 3 33 10 89 15 125 5 36 12 97 15 135 4 39 9 73 12
78 2 4 0 7 -6 7 -5 0 -26 -19 -46 -42z"/>
<path d="M21192 21995 c0 -16 2 -22 5 -12 2 9 2 23 0 30 -3 6 -5 -1 -5 -18z"/>
<path d="M21181 21944 c0 -11 3 -14 6 -6 3 7 2 16 -1 19 -3 4 -6 -2 -5 -13z"/>
<path d="M21164 21853 c-5 -38 -9 -75 -9 -83 0 -8 -4 -20 -7 -26 -11 -16 -66
-479 -85 -704 -30 -371 -18 -1335 17 -1348 5 -2 6 -10 3 -18 -7 -18 11 -169
39 -324 11 -63 22 -132 25 -152 3 -21 10 -38 15 -38 6 0 7 16 4 38 -14 89 -34
284 -46 437 -23 282 -40 962 -25 1007 2 7 6 104 9 214 3 111 8 228 11 260 3
33 10 124 15 204 12 156 46 514 55 568 3 17 2 32 -3 32 -5 0 -13 -30 -18 -67z"/>
<path d="M22176 21525 c-9 -26 -7 -32 5 -12 6 10 9 21 6 23 -2 3 -7 -2 -11
-11z"/>
<path d="M18035 21410 c-3 -5 -1 -10 4 -10 6 0 11 5 11 10 0 6 -2 10 -4 10 -3
0 -8 -4 -11 -10z"/>
<path d="M25466 20733 c-78 -40 -276 -101 -399 -123 -187 -32 -301 -41 -549
-41 -256 0 -467 16 -743 56 -245 36 -261 38 -195 20 190 -50 555 -94 845 -102
347 -9 615 23 852 102 91 30 273 114 248 114 -5 0 -32 -11 -59 -26z"/>
<path d="M23488 20663 c6 -2 18 -2 25 0 6 3 1 5 -13 5 -14 0 -19 -2 -12 -5z"/>
<path d="M23697 20126 c84 -40 360 -132 513 -170 189 -48 346 -74 509 -86 354
-25 630 47 816 214 27 24 12 17 -44 -23 -87 -61 -194 -110 -296 -135 -325 -80
-795 -25 -1350 159 -209 69 -208 69 -148 41z"/>
<path d="M11310 19934 c-35 -15 -60 -64 -53 -104 2 -14 15 -36 29 -50 20 -21
35 -25 97 -28 94 -4 138 16 151 70 12 50 -6 92 -50 113 -40 19 -128 18 -174
-1z"/>
<path d="M10885 19290 c-11 -4 -23 -5 -28 -3 -9 5 -72 -31 -106 -61 -32 -29
-68 -107 -81 -174 -12 -69 -13 -208 0 -287 13 -83 26 -154 30 -165 1 -3 2 -9
1 -13 -3 -18 47 -248 87 -397 13 -52 27 -107 30 -122 2 -16 9 -28 14 -28 6 0
8 -6 5 -14 -3 -7 6 -46 19 -87 13 -40 24 -79 24 -85 0 -6 8 -29 17 -50 9 -22
18 -47 20 -57 1 -9 14 -47 27 -85 13 -37 36 -101 51 -142 39 -108 114 -301
127 -327 6 -12 16 -20 21 -16 6 3 7 1 3 -6 -13 -20 94 -257 109 -243 5 4 5 2
1 -5 -4 -7 6 -36 21 -65 27 -53 29 -59 32 -79 0 -5 6 -7 13 -3 6 4 8 3 5 -3
-9 -15 37 -116 47 -106 5 4 6 2 2 -5 -4 -7 1 -32 12 -55 87 -182 132 -280 132
-286 0 -3 7 -19 16 -36 8 -16 31 -67 51 -113 20 -45 37 -81 40 -79 2 2 -6 26
-18 53 -12 27 -43 104 -69 171 -26 68 -51 119 -55 115 -5 -4 -5 -2 -1 5 3 6
-5 37 -18 68 -14 30 -25 56 -25 58 2 14 -16 57 -24 57 -6 0 -8 3 -4 6 3 3 -10
50 -30 103 -19 53 -41 112 -48 131 -8 19 -19 49 -26 65 -7 17 -13 35 -15 40
-5 19 -53 160 -89 260 -35 98 -60 176 -71 224 -3 13 -10 34 -16 45 -7 12 -13
28 -15 36 -13 64 -70 239 -76 233 -5 -4 -6 -1 -3 7 7 18 -78 353 -86 344 -4
-3 -4 3 -1 14 2 11 -1 37 -7 58 -6 22 -14 57 -16 79 -3 22 -8 47 -11 55 -3 8
-6 26 -7 40 -2 14 -8 86 -15 160 -23 229 0 322 105 438 52 58 162 132 195 132
8 0 26 6 40 14 18 9 62 13 142 12 111 -1 116 0 95 16 -12 9 -26 14 -30 12 -4
-3 -8 0 -8 6 0 7 -7 9 -17 6 -10 -4 -14 -4 -10 0 19 19 -307 145 -333 129 -5
-3 -10 -2 -10 4 0 11 -136 13 -165 1z m-5 -74 c0 -3 -4 -8 -10 -11 -5 -3 -10
-1 -10 4 0 6 5 11 10 11 6 0 10 -2 10 -4z"/>
<path d="M21160 19140 c0 -8 7 -37 15 -65 l15 -50 -6 55 c-5 49 -24 97 -24 60z"/>
<path d="M21191 19004 c0 -11 3 -14 6 -6 3 7 2 16 -1 19 -3 4 -6 -2 -5 -13z"/>
<path d="M10201 18684 c0 -11 3 -14 6 -6 3 7 2 16 -1 19 -3 4 -6 -2 -5 -13z"/>
<path d="M21866 17625 c78 -178 124 -356 124 -477 -1 -126 -42 -261 -114 -371
-45 -68 -34 -77 20 -15 47 54 91 129 116 198 20 56 23 84 23 200 0 114 -4 147
-23 210 -29 91 -100 232 -142 280 l-30 35 26 -60z"/>
<path d="M22720 17491 c0 -6 4 -13 10 -16 6 -3 7 1 4 9 -7 18 -14 21 -14 7z"/>
<path d="M22776 17385 c4 -8 11 -15 16 -15 6 0 5 6 -2 15 -7 8 -14 15 -16 15
-2 0 -1 -7 2 -15z"/>
<path d="M17935 17309 c-4 -6 -5 -12 -2 -15 2 -3 7 2 10 11 7 17 1 20 -8 4z"/>
<path d="M22831 17280 c6 -16 15 -27 21 -24 7 4 6 9 -2 14 -6 4 -11 10 -11 14
3 18 0 26 -8 26 -6 0 -6 -12 0 -30z"/>
<path d="M22860 17235 c0 -8 4 -15 10 -15 5 0 7 7 4 15 -4 8 -8 15 -10 15 -2
0 -4 -7 -4 -15z"/>
<path d="M17893 17165 c-3 -9 -3 -18 -1 -21 3 -3 8 4 11 16 6 23 -1 27 -10 5z"/>
<path d="M22900 17145 c0 -8 4 -15 10 -15 5 0 7 7 4 15 -4 8 -8 15 -10 15 -2
0 -4 -7 -4 -15z"/>
<path d="M17877 17111 c-3 -13 -1 -18 9 -14 7 2 10 11 7 19 -7 19 -10 18 -16
-5z"/>
<path d="M22907 17113 c-5 -9 10 -53 17 -53 3 0 2 7 -1 17 -5 12 -3 14 8 9 8
-4 6 -1 -3 7 -10 8 -15 17 -11 20 3 4 4 7 0 7 -3 0 -8 -3 -10 -7z"/>
<path d="M17870 17069 c0 -5 5 -7 10 -4 6 3 10 8 10 11 0 2 -4 4 -10 4 -5 0
-10 -5 -10 -11z"/>
<path d="M17866 17042 c-3 -5 1 -9 9 -9 8 0 15 4 15 9 0 4 -4 8 -9 8 -6 0 -12
-4 -15 -8z"/>
<path d="M17866 17004 c-8 -21 -8 -34 2 -34 4 0 8 11 8 25 2 29 -1 32 -10 9z"/>
<path d="M22950 16962 c0 -11 4 -23 8 -26 10 -6 9 30 -1 40 -4 4 -7 -2 -7 -14z"/>
<path d="M17864 16917 c2 -21 8 -43 15 -48 7 -6 8 -5 2 2 -5 6 -7 17 -5 23 3
7 0 23 -5 37 -8 21 -9 19 -7 -14z"/>
<path d="M22950 16910 c0 -5 5 -10 11 -10 5 0 7 5 4 10 -3 6 -8 10 -11 10 -2
0 -4 -4 -4 -10z"/>
<path d="M22981 16834 c0 -11 3 -14 6 -6 3 7 2 16 -1 19 -3 4 -6 -2 -5 -13z"/>
<path d="M17886 16747 c3 -10 9 -15 12 -12 3 3 0 11 -7 18 -10 9 -11 8 -5 -6z"/>
<path d="M22970 16715 c0 -5 5 -17 10 -25 5 -8 10 -10 10 -5 0 6 -5 17 -10 25
-5 8 -10 11 -10 5z"/>
<path d="M17936 16666 c5 -22 4 -27 -5 -21 -8 4 -7 -4 3 -24 17 -33 30 -42 19
-14 -4 11 -3 14 6 9 8 -5 7 5 -4 30 -20 48 -29 57 -19 20z"/>
<path d="M22970 16649 c0 -5 -4 -7 -10 -4 -5 3 -10 2 -10 -4 0 -5 9 -9 19 -8
11 0 17 6 14 14 -6 16 -13 17 -13 2z"/>
<path d="M22966 16604 c-4 -9 -4 -19 -1 -22 2 -3 7 3 11 12 4 9 4 19 1 22 -2
3 -7 -3 -11 -12z"/>
<path d="M17976 16570 c7 -29 13 -35 84 -107 30 -31 61 -53 73 -53 18 0 19 -2
7 -10 -13 -8 -12 -10 3 -10 9 0 17 5 17 10 0 6 8 5 19 -2 11 -7 18 -15 15 -19
-2 -4 6 -5 18 -2 14 3 18 1 12 -4 -17 -12 9 -34 27 -22 11 7 10 9 -6 9 -14 0
-16 3 -8 8 9 6 1 13 -25 25 -20 9 -41 17 -47 17 -5 1 -19 9 -29 18 -12 10 -16
12 -11 3 5 -9 3 -12 -6 -9 -8 3 -13 12 -11 22 2 9 -4 16 -13 16 -9 0 -13 5
-10 10 4 6 1 9 -7 8 -7 -2 -12 2 -11 9 2 8 -4 10 -14 6 -10 -4 -14 -2 -10 4 4
6 0 19 -9 27 -8 9 -12 16 -8 16 4 0 -1 9 -11 20 -10 11 -21 17 -25 15 -5 -3
-11 1 -14 7 -3 7 -3 2 0 -12z m40 -27 c-7 -7 -26 7 -26 19 0 6 6 6 15 -2 9 -7
13 -15 11 -17z m55 -80 c13 -16 12 -17 -3 -4 -17 13 -22 21 -14 21 2 0 10 -8
17 -17z"/>
<path d="M19000 16550 c-11 -7 -2 -10 29 -10 48 0 51 4 11 13 -14 3 -32 2 -40
-3z"/>
<path d="M22940 16540 c-6 -11 -16 -18 -21 -14 -7 4 -6 -4 1 -17 16 -31 25
-39 17 -16 -4 10 0 29 9 43 9 13 14 24 11 24 -4 0 -11 -9 -17 -20z"/>
<path d="M18933 16536 c1 -11 9 -21 17 -23 10 -3 11 -2 4 4 -6 4 -14 15 -17
23 -5 11 -6 9 -4 -4z"/>
<path d="M19150 16543 c5 -2 8 -9 4 -14 -3 -5 0 -9 6 -9 15 0 7 23 -8 26 -7 1
-8 0 -2 -3z"/>
<path d="M19178 16525 c-3 -14 -1 -25 3 -25 5 0 9 11 9 25 0 14 -2 25 -4 25
-2 0 -6 -11 -8 -25z"/>
<path d="M19105 16529 c-19 -9 -19 -9 2 -5 14 2 23 -2 26 -13 4 -14 5 -14 6 1
1 22 -9 28 -34 17z"/>
<path d="M18864 16521 c4 -6 16 -11 27 -11 11 0 19 -7 19 -16 0 -8 5 -12 11
-8 14 8 -7 29 -40 39 -16 5 -21 4 -17 -4z"/>
<path d="M19038 16523 c7 -3 16 -2 19 1 4 3 -2 6 -13 5 -11 0 -14 -3 -6 -6z"/>
<path d="M19205 16510 c3 -14 -2 -20 -13 -20 -14 0 -14 -2 -3 -9 9 -6 19 -4
29 5 9 9 22 12 36 8 27 -8 19 -1 -21 20 -31 15 -32 15 -28 -4z"/>
<path d="M22900 16501 c0 -6 4 -13 10 -16 6 -3 7 1 4 9 -7 18 -14 21 -14 7z"/>
<path d="M18875 16490 c-4 -6 -15 -8 -25 -5 -10 3 -21 1 -25 -5 -6 -10 9 -15
30 -10 6 1 15 3 22 3 7 0 10 4 7 8 -2 4 2 10 8 12 9 4 10 6 1 6 -6 1 -15 -4
-18 -9z"/>
<path d="M18705 16463 c-12 -10 -14 -14 -5 -10 9 2 24 -1 35 -9 12 -9 14 -14
5 -14 -7 0 -11 -2 -8 -5 3 -3 12 -3 20 0 17 7 20 36 4 34 -28 -3 -38 4 -16 11
20 7 21 8 5 9 -11 0 -29 -7 -40 -16z"/>
<path d="M19220 16469 c0 -5 5 -7 10 -4 6 3 10 8 10 11 0 2 -4 4 -10 4 -5 0
-10 -5 -10 -11z"/>
<path d="M19335 16454 c27 -25 28 -27 7 -22 -13 4 -20 2 -16 -4 3 -5 14 -8 25
-5 10 3 25 -3 35 -14 10 -11 12 -19 6 -19 -7 0 -12 -6 -12 -14 0 -16 27 -30
53 -27 9 1 17 -3 17 -9 0 -7 -7 -9 -16 -6 -12 4 -15 2 -10 -9 3 -8 1 -15 -5
-15 -6 0 -7 -5 -3 -11 5 -8 9 -8 14 1 5 8 10 9 14 2 8 -14 35 -4 32 11 -5 30
-30 54 -51 49 -13 -2 -26 2 -30 8 -5 9 -1 10 15 5 20 -6 20 -5 -6 24 -15 17
-44 43 -63 57 l-36 26 30 -28z m125 -140 c0 -8 -5 -12 -10 -9 -6 4 -8 11 -5
16 9 14 15 11 15 -7z"/>
<path d="M18795 16460 c19 -8 19 -9 1 -9 -11 -1 -17 -4 -13 -7 3 -3 15 -3 28
1 17 6 19 9 8 16 -8 5 -21 8 -29 8 -10 0 -8 -3 5 -9z"/>
<path d="M22867 16446 c-4 -10 0 -12 14 -9 10 3 19 0 19 -6 0 -6 -5 -11 -11
-11 -5 0 -8 -4 -5 -9 8 -12 -18 -32 -43 -34 -12 -1 -21 -5 -21 -9 0 -20 56 7
76 37 13 20 14 28 4 40 -16 19 -26 19 -33 1z"/>
<path d="M18645 16440 c-11 -5 -14 -9 -7 -9 17 -1 15 -21 -2 -21 -8 0 -16 -7
-20 -15 -3 -8 -1 -15 4 -15 6 0 10 5 10 11 0 6 10 8 23 5 12 -3 17 -3 10 0
-13 6 -6 35 11 46 15 10 -4 9 -29 -2z"/>
<path d="M21666 16434 c-11 -7 -18 -16 -15 -18 2 -2 13 2 23 10 11 7 18 16 15
18 -2 2 -13 -2 -23 -10z"/>
<path d="M21766 16437 c3 -10 9 -15 12 -12 3 3 0 11 -7 18 -10 9 -11 8 -5 -6z"/>
<path d="M21610 16431 c-8 -6 -17 -8 -21 -5 -4 2 -10 0 -14 -5 -3 -6 3 -8 15
-6 23 4 60 24 45 25 -5 0 -17 -4 -25 -9z"/>
<path d="M21790 16430 c0 -5 5 -10 10 -10 6 0 10 5 10 10 0 6 -4 10 -10 10 -5
0 -10 -4 -10 -10z"/>
<path d="M19305 16410 c10 -11 20 -20 22 -20 2 0 -2 9 -9 20 -7 11 -17 20 -22
20 -5 0 -1 -9 9 -20z"/>
<path d="M21708 16423 c7 -3 16 -2 19 1 4 3 -2 6 -13 5 -11 0 -14 -3 -6 -6z"/>
<path d="M21748 16413 c6 -2 9 -10 6 -15 -4 -7 -2 -8 5 -4 13 9 5 26 -12 25
-9 0 -8 -2 1 -6z"/>
<path d="M21887 16409 c7 -7 15 -10 18 -7 3 3 -2 9 -12 12 -14 6 -15 5 -6 -5z"/>
<path d="M18575 16400 c-3 -5 -1 -10 4 -10 6 0 11 5 11 10 0 6 -2 10 -4 10 -3
0 -8 -4 -11 -10z"/>
<path d="M21621 16388 c1 -18 2 -19 6 -5 2 9 9 14 15 11 7 -4 8 -2 4 4 -12 20
-26 13 -25 -10z"/>
<path d="M21810 16400 c0 -5 5 -10 11 -10 5 0 7 5 4 10 -3 6 -8 10 -11 10 -2
0 -4 -4 -4 -10z"/>
<path d="M21855 16400 c3 -5 8 -10 11 -10 2 0 4 5 4 10 0 6 -5 10 -11 10 -5 0
-7 -4 -4 -10z"/>
<path d="M21926 16396 c7 -18 34 -22 34 -4 0 6 -3 8 -7 5 -3 -4 -12 -2 -20 5
-11 8 -12 7 -7 -6z"/>
<path d="M22835 16400 c-3 -5 -1 -10 4 -10 6 0 11 5 11 10 0 6 -2 10 -4 10 -3
0 -8 -4 -11 -10z"/>
<path d="M18531 16384 c0 -11 3 -14 6 -6 3 7 2 16 -1 19 -3 4 -6 -2 -5 -13z"/>
<path d="M21500 16385 c-10 -13 -9 -15 11 -14 13 0 18 3 11 6 -6 2 -10 9 -6
14 9 15 -2 10 -16 -6z"/>
<path d="M21590 16390 c0 -5 5 -10 11 -10 5 0 7 5 4 10 -3 6 -8 10 -11 10 -2
0 -4 -4 -4 -10z"/>
<path d="M21698 16393 c7 -3 16 -2 19 1 4 3 -2 6 -13 5 -11 0 -14 -3 -6 -6z"/>
<path d="M21576 16373 c2 -7 -4 -13 -12 -13 -8 0 -12 5 -9 10 3 6 1 10 -5 10
-7 0 -10 -6 -8 -12 3 -7 -1 -18 -8 -25 -16 -16 -28 -17 -18 -1 5 7 3 8 -5 3
-7 -4 -9 -11 -4 -16 5 -5 30 2 57 16 27 14 42 25 34 25 -9 0 -18 3 -21 8 -2 4
-2 1 -1 -5z"/>
<path d="M21873 16376 c-10 -11 -9 -15 2 -20 10 -3 15 1 16 12 0 10 3 12 6 5
2 -7 9 -13 14 -13 4 0 6 7 3 15 -7 19 -25 19 -41 1z"/>
<path d="M21970 16382 c0 -6 -8 -13 -17 -15 -16 -4 -16 -5 -1 -6 18 -1 34 16
24 26 -3 4 -6 1 -6 -5z"/>
<path d="M21994 16372 c3 -5 0 -13 -6 -15 -8 -3 -6 -6 5 -6 19 -1 23 14 5 25
-6 4 -8 3 -4 -4z"/>
<path d="M18282 16361 c-6 -4 -4 -11 4 -18 8 -8 15 -9 19 -3 3 6 30 10 58 11
29 0 48 2 42 4 -21 7 -114 12 -123 6z"/>
<path d="M18508 16353 c7 -3 16 -2 19 1 4 3 -2 6 -13 5 -11 0 -14 -3 -6 -6z"/>
<path d="M22035 16350 c-16 -7 -17 -9 -3 -9 9 -1 20 4 23 9 7 11 7 11 -20 0z"/>
<path d="M22782 16337 c-12 -13 -19 -27 -15 -32 5 -4 -1 -5 -12 -2 -18 7 -19
6 -3 -6 14 -11 15 -16 5 -27 -9 -9 -6 -9 11 1 12 8 20 20 17 28 -3 9 0 11 10
8 8 -4 17 -1 21 5 4 6 3 8 -3 5 -15 -10 -24 18 -10 32 6 6 9 11 6 11 -3 0 -15
-10 -27 -23z"/>
<path d="M18415 16340 c-3 -6 1 -7 9 -4 18 7 21 14 7 14 -6 0 -13 -4 -16 -10z"/>
<path d="M19380 16341 c0 -5 7 -12 16 -15 14 -5 15 -4 4 9 -14 17 -20 19 -20
6z"/>
<path d="M21427 16335 c-15 -11 -16 -14 -2 -25 13 -11 14 -10 9 5 -5 11 -3 16
2 12 6 -3 16 -2 23 2 10 7 10 9 -1 13 -8 3 -22 0 -31 -7z"/>
<path d="M21945 16340 c3 -5 8 -10 11 -10 2 0 4 5 4 10 0 6 -5 10 -11 10 -5 0
-7 -4 -4 -10z"/>
<path d="M22820 16340 c-9 -6 -10 -10 -3 -10 6 0 15 5 18 10 8 12 4 12 -15 0z"/>
<path d="M22153 16315 c0 -8 4 -12 9 -9 4 3 8 9 8 15 0 5 -4 9 -8 9 -5 0 -9
-7 -9 -15z"/>
<path d="M21469 16303 c-12 -16 -12 -17 2 -6 9 7 20 9 24 5 5 -4 5 -1 1 6 -9
16 -11 15 -27 -5z"/>
<path d="M22200 16310 c0 -5 5 -10 11 -10 5 0 7 5 4 10 -3 6 -8 10 -11 10 -2
0 -4 -4 -4 -10z"/>
<path d="M19504 16291 c13 -15 14 -20 4 -24 -7 -3 -3 -4 9 -4 l23 1 -22 23
c-26 28 -38 31 -14 4z"/>
<path d="M21390 16295 c0 -7 -8 -18 -17 -24 -14 -8 -13 -9 8 -8 21 2 24 6 21
24 -5 26 -12 31 -12 8z"/>
<path d="M22187 16284 c6 -15 23 -19 23 -5 0 5 -7 11 -14 14 -10 4 -13 1 -9
-9z"/>
<path d="M22235 16290 c3 -5 -1 -11 -7 -13 -10 -4 -10 -6 0 -6 6 -1 12 -5 12
-10 0 -5 -10 -7 -22 -5 -21 4 -22 4 -3 -5 14 -6 23 -5 30 3 6 7 15 15 22 17 7
2 1 9 -12 16 -14 6 -23 7 -20 3z"/>
<path d="M21421 16273 c0 -11 3 -13 6 -5 2 6 10 9 15 6 7 -4 8 -2 4 4 -11 18
-26 14 -25 -5z"/>
<path d="M22146 16282 c-3 -5 1 -9 9 -9 8 0 15 4 15 9 0 4 -4 8 -9 8 -6 0 -12
-4 -15 -8z"/>
<path d="M22709 16278 c-1 -7 -1 -16 0 -21 1 -4 -10 -5 -23 -1 -14 3 -33 1
-43 -4 -14 -8 -9 -10 22 -8 22 1 45 5 52 9 6 4 14 1 17 -5 2 -7 3 -2 2 11 -3
26 -25 42 -27 19z"/>
<path d="M19476 16252 c-3 -5 3 -17 13 -27 17 -15 19 -15 17 -1 -3 22 -22 40
-30 28z"/>
<path d="M21325 16250 c-3 -6 1 -7 9 -4 24 9 19 -1 -19 -39 -28 -28 -32 -36
-19 -41 9 -3 12 -11 8 -18 -4 -7 -3 -9 1 -5 5 4 9 20 10 35 0 23 4 27 31 28
17 1 36 4 43 8 14 9 15 36 0 36 -5 0 -8 -4 -5 -9 3 -5 -1 -14 -8 -20 -11 -9
-16 -9 -21 0 -4 6 -2 15 5 19 8 5 7 9 -5 14 -22 8 -23 8 -30 -4z"/>
<path d="M19523 16230 c-2 -24 34 -47 50 -31 7 7 6 15 -3 26 -7 8 -15 13 -18
10 -3 -3 -10 -1 -16 5 -8 6 -12 3 -13 -10z m47 -20 c0 -5 -9 -6 -20 -3 -11 3
-20 9 -20 13 0 5 9 6 20 3 11 -3 20 -9 20 -13z"/>
<path d="M22410 16241 c0 -4 9 -12 20 -19 12 -7 20 -8 20 -2 0 5 -5 10 -11 10
-5 0 -8 4 -5 8 3 5 -1 9 -9 9 -8 0 -15 -3 -15 -6z"/>
<path d="M22476 16225 c-9 -26 -7 -32 5 -12 6 10 9 21 6 23 -2 3 -7 -2 -11
-11z"/>
<path d="M22537 16226 c-3 -8 2 -20 11 -27 14 -11 15 -11 5 0 -6 7 -9 20 -6
27 3 8 3 14 0 14 -3 0 -7 -6 -10 -14z"/>
<path d="M22560 16220 c0 -11 8 -13 61 -14 20 -1 36 4 36 10 0 9 -8 9 -30 1
-22 -7 -35 -7 -48 2 -12 7 -19 7 -19 1z"/>
<path d="M19535 16169 c16 -19 34 -38 38 -44 5 -6 5 -3 2 6 -5 13 -1 15 19 12
22 -5 25 -2 21 17 -5 26 -15 40 -15 21 0 -7 -5 -9 -10 -6 -6 4 -17 1 -25 -5
-10 -8 -15 -9 -15 -2 0 6 -10 17 -22 23 -20 10 -19 7 7 -22z m69 -8 c-8 -8
-43 -8 -38 0 2 4 13 7 24 6 10 -1 17 -3 14 -6z"/>
<path d="M21254 16178 l-19 -23 23 19 c21 18 27 26 19 26 -2 0 -12 -10 -23
-22z"/>
<path d="M21330 16185 c-8 -9 -8 -15 -2 -15 12 0 26 19 19 26 -2 2 -10 -2 -17
-11z"/>
<path d="M22505 16190 c27 -12 43 -12 25 0 -8 5 -22 9 -30 9 -10 0 -8 -3 5 -9z"/>
<path d="M21220 16156 c0 -2 7 -9 15 -16 9 -7 15 -8 15 -2 0 5 -7 12 -15 16
-8 3 -15 4 -15 2z"/>
<path d="M19630 16119 c0 -16 -4 -28 -8 -25 -5 3 -9 -1 -9 -9 0 -8 4 -15 9
-15 4 0 7 -5 6 -12 -2 -7 7 -13 20 -14 41 -3 43 -4 37 -14 -4 -6 -10 -8 -15
-5 -25 15 3 -30 49 -81 30 -32 48 -51 42 -42 -7 9 -9 23 -5 29 4 7 3 9 -3 6
-6 -4 -16 0 -23 8 -11 13 -9 15 11 11 13 -3 30 -5 37 -5 6 -1 12 -6 12 -12 0
-5 -4 -8 -8 -5 -5 3 -9 -1 -9 -8 0 -8 11 -13 24 -13 13 0 23 4 23 9 0 5 -4 6
-10 3 -5 -3 -10 0 -10 8 0 20 -42 55 -47 40 -4 -10 -8 -9 -19 1 -18 18 -19 50
-1 40 6 -4 4 2 -7 14 -10 12 -23 19 -27 16 -5 -3 -9 0 -9 6 0 6 -4 8 -10 5 -5
-3 -10 -2 -10 4 0 5 6 11 14 13 11 2 5 14 -20 40 l-34 38 0 -31z m38 -48 c-15
-24 -36 -22 -33 3 1 12 3 27 4 35 1 11 5 10 20 -3 16 -14 18 -22 9 -35z m47
-76 l2 -36 -24 22 c-22 21 -22 24 -6 41 20 23 25 18 28 -27z"/>
<path d="M19640 16079 c0 -5 5 -7 10 -4 6 3 10 8 10 11 0 2 -4 4 -10 4 -5 0
-10 -5 -10 -11z"/>
<path d="M21181 16116 c-14 -15 -19 -26 -12 -31 16 -9 33 4 27 21 -3 7 -1 16
4 19 4 3 10 -1 13 -7 2 -7 7 -10 11 -7 4 3 0 11 -7 17 -11 9 -19 6 -36 -12z
m9 -16 c0 -5 -5 -10 -11 -10 -5 0 -7 5 -4 10 3 6 8 10 11 10 2 0 4 -4 4 -10z"/>
<path d="M21207 16065 c3 -8 9 -12 14 -9 12 7 11 11 -5 17 -10 4 -13 1 -9 -8z"/>
<path d="M21135 16062 c-5 -4 -21 -21 -35 -37 -22 -27 -21 -26 13 4 33 32 42
41 35 41 -2 0 -7 -4 -13 -8z"/>
<path d="M21150 16045 c-6 -8 -10 -19 -8 -24 1 -6 8 1 15 14 13 28 11 31 -7
10z"/>
<path d="M21072 15964 c-19 -19 -28 -34 -22 -34 9 0 9 -4 -1 -16 -9 -11 -15
-12 -17 -5 -2 7 -17 -1 -33 -19 -28 -29 -58 -33 -43 -7 4 7 3 9 -1 4 -14 -12
-13 -46 1 -40 22 8 37 -7 23 -23 -6 -7 -16 -11 -22 -7 -6 4 -7 1 -2 -6 11 -20
39 13 40 46 0 24 4 28 27 28 35 1 52 18 53 53 0 23 4 27 28 27 15 1 35 8 44
17 12 13 13 16 2 15 -8 -2 -19 -6 -26 -10 -6 -4 -13 -3 -15 2 -1 5 -18 -6 -36
-25z m-2 -48 c0 -2 -8 -10 -17 -17 -16 -13 -17 -12 -4 4 13 16 21 21 21 13z"/>
<path d="M21014 15938 l-19 -23 23 19 c21 18 27 26 19 26 -2 0 -12 -10 -23
-22z"/>
<path d="M21090 15945 c-8 -9 -8 -15 -2 -15 12 0 26 19 19 26 -2 2 -10 -2 -17
-11z"/>
<path d="M19800 15890 c0 -5 5 -10 11 -10 5 0 7 5 4 10 -3 6 -8 10 -11 10 -2
0 -4 -4 -4 -10z"/>
<path d="M19830 15889 c0 -5 5 -7 10 -4 6 3 10 1 10 -4 0 -6 -4 -11 -10 -11
-5 0 -10 -5 -10 -11 0 -8 6 -7 16 2 14 11 19 10 35 -10 11 -13 19 -18 19 -12
0 12 -49 60 -62 61 -5 0 -8 -5 -8 -11z"/>
<path d="M21010 15865 c-8 -9 -8 -15 -2 -15 12 0 26 19 19 26 -2 2 -10 -2 -17
-11z"/>
<path d="M20913 15848 c-4 -7 -8 -17 -8 -23 -1 -5 -6 -9 -11 -8 -6 1 -11 -5
-11 -13 0 -7 3 -14 7 -14 13 0 37 35 37 53 0 20 -3 21 -14 5z"/>
<path d="M19810 15846 c0 -2 8 -10 18 -17 15 -13 16 -12 3 4 -13 16 -21 21
-21 13z"/>
<path d="M19916 15832 c-3 -5 1 -9 9 -9 8 0 12 4 9 9 -3 4 -7 8 -9 8 -2 0 -6
-4 -9 -8z"/>
<path d="M19877 15789 c12 -12 25 -20 28 -17 3 3 -7 13 -22 23 l-28 17 22 -23z"/>
<path d="M19913 15793 c16 -8 36 -12 44 -9 23 9 9 18 -34 22 l-38 2 28 -15z"/>
<path d="M20927 15785 c3 -8 9 -12 14 -9 12 7 11 11 -5 17 -10 4 -13 1 -9 -8z"/>
<path d="M20000 15780 c8 -5 20 -10 25 -10 6 0 3 5 -5 10 -8 5 -19 10 -25 10
-5 0 -3 -5 5 -10z"/>
<path d="M19980 15762 c0 -5 7 -9 15 -9 8 0 12 4 9 9 -3 4 -9 8 -15 8 -5 0 -9
-4 -9 -8z"/>
<path d="M20891 15747 c-13 -21 -12 -21 5 -5 10 10 16 20 13 22 -3 3 -11 -5
-18 -17z"/>
<path d="M20110 15750 c8 -5 20 -10 25 -10 6 0 3 5 -5 10 -8 5 -19 10 -25 10
-5 0 -3 -5 5 -10z"/>
<path d="M20827 15732 c-23 -14 -29 -15 -36 -3 -6 9 -11 10 -15 2 -4 -6 -1
-11 6 -11 9 0 9 -3 -2 -10 -12 -8 -11 -10 6 -7 21 3 96 47 79 47 -5 0 -23 -8
-38 -18z"/>
<path d="M19983 15725 c0 -8 4 -12 9 -9 5 3 6 10 3 15 -9 13 -12 11 -12 -6z"/>
<path d="M20154 15732 c3 -6 -2 -13 -11 -15 -16 -4 -16 -5 -1 -6 21 -1 32 15
17 25 -7 4 -9 3 -5 -4z"/>
<path d="M20061 15713 c-24 -26 2 -24 42 3 17 11 17 12 -6 10 -13 0 -30 -6
-36 -13z"/>
<path d="M20721 15721 c-7 -5 -12 -14 -10 -20 2 -6 10 -2 17 9 14 22 13 23 -7
11z"/>
<path d="M20315 15700 c4 -19 -9 -28 -18 -12 -2 4 -2 1 -1 -5 2 -7 -4 -13 -14
-13 -15 0 -15 -2 -2 -10 10 -6 16 -6 18 0 2 6 9 10 17 10 7 0 13 11 13 25 0
14 -4 25 -9 25 -4 0 -6 -9 -4 -20z"/>
<path d="M20345 15700 c-3 -5 3 -10 15 -10 12 0 18 5 15 10 -3 6 -10 10 -15
10 -5 0 -12 -4 -15 -10z"/>
<path d="M20820 15701 c-8 -6 -18 -7 -22 -5 -4 3 -8 1 -8 -5 0 -6 -7 -7 -17
-4 -11 5 -14 3 -8 -6 5 -10 2 -12 -11 -7 -25 8 -53 -9 -29 -17 11 -5 14 -3 9
5 -5 8 -2 9 10 5 15 -6 96 26 96 38 0 7 -3 6 -20 -4z"/>
<path d="M20186 15684 c-6 -15 -4 -15 11 -3 10 7 20 15 22 16 2 2 -3 3 -11 3
-9 0 -19 -7 -22 -16z"/>
<path d="M20513 15693 c-7 -3 -13 -9 -13 -14 0 -6 4 -7 10 -4 5 3 19 1 31 -6
13 -7 19 -7 15 -1 -4 6 2 15 11 21 16 9 16 10 1 11 -9 0 -19 -6 -21 -12 -4 -9
-8 -10 -14 -2 -4 6 -14 9 -20 7z"/>
<path d="M20225 15670 c3 -5 8 -10 11 -10 2 0 4 5 4 10 0 6 -5 10 -11 10 -5 0
-7 -4 -4 -10z"/>
<path d="M20346 15661 c-19 -7 -19 -8 1 -13 14 -4 24 0 27 8 6 15 1 16 -28 5z"/>
<path d="M20467 15663 c-7 -7 22 -32 38 -32 6 0 2 4 -8 10 -9 6 -15 14 -12 20
7 10 -8 13 -18 2z"/>
<path d="M20630 15666 c0 -2 11 -6 25 -8 13 -3 22 -1 19 3 -5 9 -44 13 -44 5z"/>
<path d="M20390 15652 c0 -11 39 -12 45 -1 4 5 -5 9 -19 9 -14 0 -26 -4 -26
-8z"/>
<path d="M20588 15653 c7 -3 16 -2 19 1 4 3 -2 6 -13 5 -11 0 -14 -3 -6 -6z"/>
<path d="M20540 15646 c0 -2 7 -6 15 -10 8 -3 15 -1 15 4 0 6 -7 10 -15 10 -8
0 -15 -2 -15 -4z"/>
<path d="M23385 13792 c-17 -9 -62 -38 -101 -65 l-70 -48 33 -65 c18 -37 33
-72 33 -80 0 -7 6 -16 13 -20 6 -4 9 -4 6 -1 -3 4 14 28 37 54 60 65 104 151
104 202 0 46 -9 49 -55 23z"/>
<path d="M12632 13763 c-6 -11 -47 -128 -91 -259 -118 -355 -173 -599 -190
-845 -9 -124 2 -336 18 -352 4 -4 14 7 21 25 44 112 122 273 164 338 l36 55
-8 -60 c-14 -117 -7 -473 11 -574 16 -87 75 -286 83 -278 2 2 10 64 19 138 19
164 49 340 68 394 l14 40 7 -65 c3 -36 10 -121 16 -190 23 -267 82 -526 134
-586 l22 -27 23 61 c20 57 119 259 159 327 30 52 79 119 100 138 20 18 20 19
-31 110 -196 355 -356 800 -502 1397 -26 107 -51 204 -55 215 -7 19 -7 19 -18
-2z"/>
<path d="M16954 13755 c-10 -25 16 -102 56 -163 38 -59 226 -245 242 -240 12
4 11 23 0 23 -14 0 -41 32 -34 40 4 4 2 5 -4 3 -10 -3 -94 70 -94 82 0 3 35
-11 78 -32 71 -36 286 -98 338 -98 l22 0 -18 58 c-10 32 -21 79 -25 104 -7 44
-9 47 -34 43 -33 -6 -366 -45 -381 -45 -13 0 -3 42 21 92 11 21 19 39 19 41 0
7 -135 94 -158 101 -16 5 -24 3 -28 -9z"/>
<path d="M22671 13597 c-12 -45 -25 -89 -28 -98 -4 -13 6 -20 44 -30 51 -13
191 -19 208 -8 6 4 48 12 95 18 177 24 245 37 232 45 -44 27 -322 110 -507
151 -17 3 -23 -7 -44 -78z"/>
<path d="M18884 13551 l-41 -87 76 2 c42 1 101 -2 130 -7 30 -4 56 -7 58 -5 2
2 -15 45 -38 95 l-42 91 -51 0 -51 -1 -41 -88z"/>
<path d="M21796 13590 c-5 -30 -16 -79 -27 -109 l-18 -54 45 6 c25 2 48 7 51
10 3 4 -6 50 -19 104 l-25 98 -7 -55z"/>
<path d="M21267 13507 c-10 -39 -20 -82 -23 -94 -6 -21 -3 -23 41 -23 41 0 46
2 40 18 -4 9 -13 50 -21 91 -8 41 -16 76 -17 78 -2 1 -11 -30 -20 -70z"/>
<path d="M22399 12463 c-13 -16 -12 -17 4 -4 16 13 21 21 13 21 -2 0 -10 -8
-17 -17z"/>
<path d="M22329 12393 c-13 -16 -12 -17 4 -4 9 7 17 15 17 17 0 8 -8 3 -21
-13z"/>
<path d="M22091 12216 c-9 -11 -9 -16 1 -22 7 -4 10 -4 6 1 -4 4 -3 14 3 22 6
7 9 13 6 13 -2 0 -10 -6 -16 -14z"/>
</g>
</svg>
